<?xml version="1.0" standalone="no"?>
<!DOCTYPE svg PUBLIC "-//W3C//DTD SVG 20010904//EN"
 "http://www.w3.org/TR/2001/REC-SVG-20010904/DTD/svg10.dtd">
<svg version="1.0" xmlns="http://www.w3.org/2000/svg"
 width="32.000000pt" height="32.000000pt" viewBox="0 0 32.000000 32.000000"
 preserveAspectRatio="xMidYMid meet">

<g transform="translate(0.000000,32.000000) scale(0.100000,-0.100000)"
fill="#000000" stroke="none">
<path d="M163 262 c-9 -15 -9 -22 0 -31 14 -14 40 -15 32 -1 -4 6 7 13 24 16
17 4 31 10 31 15 0 11 2 11 -37 0 -25 -7 -33 -6 -35 5 -2 11 -6 10 -15 -4z"/>
<path d="M70 235 c-18 -19 -26 -22 -32 -13 -5 8 -8 3 -8 -14 0 -23 4 -28 25
-28 14 0 25 5 25 10 0 6 -5 10 -12 10 -6 0 1 14 17 30 16 17 24 30 19 30 -6 0
-21 -11 -34 -25z"/>
<path d="M120 212 c0 -5 13 -21 29 -36 16 -16 27 -35 24 -42 -3 -9 2 -14 16
-14 16 0 21 6 21 28 0 18 -3 23 -9 14 -6 -10 -16 -4 -39 22 -31 36 -42 43 -42
28z"/>
<path d="M245 141 c-3 -6 -1 -11 5 -11 7 0 -2 -18 -19 -39 -18 -22 -27 -42
-22 -45 5 -4 19 10 31 30 14 22 28 33 37 30 10 -4 13 0 11 16 -3 24 -32 36
-43 19z"/>
<path d="M76 121 c-3 -5 7 -14 23 -21 19 -7 28 -17 24 -26 -6 -16 -2 -17 21
-8 9 3 16 14 16 24 0 22 -17 35 -22 18 -3 -9 -11 -8 -31 5 -14 9 -28 13 -31 8z"/>
</g>
</svg>
